<?xml version="1.0" standalone="no"?>
<!DOCTYPE svg PUBLIC "-//W3C//DTD SVG 20010904//EN"
 "http://www.w3.org/TR/2001/REC-SVG-20010904/DTD/svg10.dtd">
<svg version="1.0" xmlns="http://www.w3.org/2000/svg"
 width="407.000000pt" height="109.000000pt" viewBox="0 0 407.000000 109.000000"
 preserveAspectRatio="xMidYMid meet">

<g transform="translate(0.000000,109.000000) scale(0.100000,-0.100000)"
fill="#000000" stroke="none">
<path d="M0 545 l0 -545 2035 0 2035 0 0 545 0 545 -2035 0 -2035 0 0 -545z
m360 506 c0 -4 -5 -33 -11 -62 -22 -113 -59 -325 -59 -336 0 -10 43 -13 183
-13 101 0 186 -2 189 -5 3 -3 0 -33 -6 -68 l-11 -62 -268 -3 c-250 -2 -267 -1
-267 15 0 10 9 68 20 128 33 183 72 389 76 403 4 14 154 18 154 3z m743 -5
c83 -30 122 -101 121 -221 0 -133 -53 -248 -136 -295 -40 -23 -54 -25 -207
-28 -162 -4 -164 -4 -158 17 3 12 20 103 39 204 l33 182 8 -130 c4 -71 9 -136
12 -142 6 -17 151 -17 184 0 40 20 73 97 79 180 4 63 1 75 -18 100 l-21 27
-301 0 -300 0 7 53 c4 28 9 55 12 60 2 4 140 7 306 7 228 -1 311 -4 340 -14z
m667 -4 c42 -20 80 -89 80 -142 -1 -74 -59 -156 -135 -191 -31 -14 -65 -19
-148 -19 -98 0 -108 2 -104 18 3 9 8 34 12 55 l6 37 75 0 c70 0 78 2 105 29
34 34 38 79 10 105 -15 14 -35 16 -112 14 l-94 -3 -37 -220 c-20 -121 -37
-221 -37 -222 -1 -2 -32 -3 -71 -3 -38 0 -70 1 -70 3 0 1 6 36 14 77 8 41 29
162 46 269 17 107 33 198 36 203 3 4 92 8 197 8 163 0 197 -3 227 -18z m683
-27 l-15 -45 -73 0 -74 0 16 45 15 45 73 0 74 0 -16 -45z m844 33 c-14 -39
-87 -258 -87 -262 0 -3 33 -6 73 -6 l72 0 48 140 49 140 69 0 c38 0 69 -4 69
-8 0 -5 -29 -91 -64 -193 l-64 -184 -482 -3 -482 -2 6 22 c21 75 26 68 -57 68
l-75 0 -43 -125 -43 -125 -73 0 -72 0 50 143 c28 78 57 158 63 177 l13 35 216
3 c147 2 217 -1 217 -8 0 -6 -7 -26 -14 -45 l-15 -35 197 0 197 0 34 108 c59
184 50 172 132 172 53 0 70 -3 66 -12z m592 0 c0 -7 -28 -94 -62 -193 l-62
-180 -72 -3 c-40 -2 -73 -1 -73 0 0 2 29 88 65 192 36 103 65 190 65 192 0 2
32 4 70 4 50 0 70 -4 69 -12z m-1852 -368 l-62 -180 -72 0 -71 0 13 43 c20 62
82 237 100 280 l15 37 69 0 69 0 -61 -180z m-1337 165 c0 -2 -5 -27 -11 -55
l-11 -50 -135 0 -135 0 6 38 c14 77 3 72 152 72 74 0 134 -2 134 -5z m1790
-251 c0 -4 -5 -24 -11 -45 l-12 -37 -71 -4 c-39 -2 -73 -3 -75 -1 -2 1 5 22
14 47 l18 46 68 0 c38 0 69 -3 69 -6z m180 0 c0 -4 -5 -24 -12 -45 l-11 -39
-74 0 c-40 0 -73 2 -73 5 0 2 7 23 16 45 l16 40 69 0 c38 0 69 -3 69 -6z m660
-276 c0 -4 -9 -8 -19 -8 -11 0 -22 4 -25 8 -2 4 6 8 20 8 13 0 24 -4 24 -8z
m-2370 -30 c0 -6 -8 -20 -17 -31 -17 -18 -17 -20 -1 -31 9 -7 20 -24 23 -39 4
-15 13 -27 21 -27 11 0 14 17 14 71 0 62 2 70 18 67 14 -3 17 -15 18 -68 2
-51 5 -66 18 -68 10 -2 16 4 16 17 0 47 83 52 100 6 12 -32 28 -32 40 -1 17
45 85 46 96 0 7 -28 34 -33 35 -6 1 9 2 26 3 37 1 11 3 35 4 53 1 21 7 32 17
32 12 0 15 -16 15 -84 0 -79 -2 -85 -22 -92 -33 -12 -871 -5 -883 7 -6 6 -4
25 5 52 14 38 18 42 52 45 29 2 38 -1 42 -16 4 -11 5 -26 4 -33 -2 -11 32 -15
175 -17 154 -2 177 0 177 13 0 9 -11 20 -24 25 -39 15 -40 30 -5 66 33 34 59
44 59 22z m500 -59 c0 -67 1 -70 23 -67 17 2 23 11 25 36 2 20 9 32 18 32 12
0 14 -11 12 -52 l-3 -53 -52 -3 -53 -3 0 90 c0 74 3 91 15 91 12 0 15 -15 15
-71z m460 24 c0 -99 -12 -93 191 -93 l179 0 0 23 c0 32 18 47 58 47 38 0 41
-23 3 -28 -32 -5 -23 -36 12 -40 30 -4 30 -4 21 -26 -5 -14 -35 -16 -234 -16
-190 0 -230 -2 -240 -15 -16 -20 -80 -20 -80 -1 0 9 12 16 28 18 27 3 27 3 30
91 2 68 6 87 17 87 11 0 15 -13 15 -47z m618 -37 c4 -97 -11 -126 -63 -126
-43 0 -49 27 -7 32 27 3 27 3 30 91 2 77 5 88 20 85 14 -3 18 -17 20 -82z m80
-3 c-2 -70 -6 -88 -18 -88 -12 0 -16 18 -18 88 -3 82 -2 87 18 87 20 0 21 -5
18 -87z m294 20 l3 -68 187 -3 187 -2 3 32 c4 45 32 45 36 1 2 -25 8 -33 23
-33 14 0 19 7 19 29 0 37 19 50 36 26 13 -17 15 -18 33 -1 12 11 31 16 53 14
33 -3 33 -4 33 -53 l0 -50 -322 -3 -323 -2 0 90 c0 72 3 90 15 90 11 0 15 -16
17 -67z m-2382 37 c0 -5 -7 -10 -15 -10 -8 0 -15 5 -15 10 0 6 7 10 15 10 8 0
15 -4 15 -10z m40 0 c0 -5 -7 -10 -15 -10 -8 0 -15 5 -15 10 0 6 7 10 15 10 8
0 15 -4 15 -10z m1158 -1 c-2 -6 -8 -10 -13 -10 -5 0 -11 4 -13 10 -2 6 4 11
13 11 9 0 15 -5 13 -11z m122 -6 c0 -10 3 -42 6 -70 6 -43 4 -53 -8 -53 -16 0
-28 46 -28 108 0 22 5 32 15 32 8 0 15 -8 15 -17z m614 -29 c9 -71 7 -94 -8
-94 -14 0 -26 49 -26 108 0 51 26 41 34 -14z m856 36 c0 -5 -4 -10 -10 -10 -5
0 -10 5 -10 10 0 6 5 10 10 10 6 0 10 -4 10 -10z m-1542 -107 l-3 -68 -44 -3
c-54 -4 -81 17 -81 65 0 27 4 34 18 31 9 -2 18 -10 18 -18 1 -8 2 -21 3 -27 0
-7 12 -13 26 -13 23 0 25 4 25 43 0 46 5 57 27 57 11 0 13 -15 11 -67z m1042
52 c0 -9 -10 -15 -26 -15 -36 0 -29 -34 9 -38 38 -5 32 -35 -8 -42 -36 -6 -40
-32 -6 -40 14 -3 26 -11 29 -18 5 -16 -60 -16 -76 0 -14 14 -16 57 -3 77 6 9
6 22 0 33 -16 30 6 58 46 58 24 0 35 -5 35 -15z m-1300 -130 c0 -8 -4 -15 -10
-15 -5 0 -10 7 -10 15 0 8 5 15 10 15 6 0 10 -7 10 -15z m936 -24 c-4 -5 0
-12 6 -14 8 -3 6 -6 -4 -6 -10 -1 -18 6 -18 14 0 8 5 15 11 15 5 0 8 -4 5 -9z"/>
<path d="M517 183 c-12 -11 -8 -23 8 -23 8 0 15 7 15 15 0 16 -12 20 -23 8z"/>
<path d="M1105 170 c-3 -6 1 -13 10 -16 19 -8 30 0 20 15 -8 14 -22 14 -30 1z"/>
<path d="M1244 169 c-3 -6 -1 -16 5 -22 9 -9 14 -8 21 3 9 15 4 30 -10 30 -5
0 -12 -5 -16 -11z"/>
<path d="M3447 183 c-15 -14 -6 -23 23 -23 20 0 30 5 30 15 0 15 -40 21 -53 8z"/>
</g>
</svg>
